<svg id="Layer_1" data-name="Layer 1" xmlns="http://www.w3.org/2000/svg" xmlns:xlink="http://www.w3.org/1999/xlink" viewBox="0 0 1080 1080"><defs><style>.cls-1,.cls-2{fill:#8cca33;}.cls-1{opacity:0.43;}.cls-2{opacity:0.18;}.cls-3{fill:#211a1a;}.cls-4{font-size:61.09px;font-family:Roboto-Bold, Roboto;font-weight:700;letter-spacing:0.1em;}.cls-5{letter-spacing:0.11em;}.cls-6{letter-spacing:0.1em;}.cls-7,.cls-8{font-size:222.79px;font-family:ColonnaMT, Colonna MT;}.cls-7{fill:#fff;}.cls-9{fill:url(#linear-gradient);}</style><linearGradient id="linear-gradient" x1="440.8" y1="509.18" x2="595.17" y2="509.18" gradientUnits="userSpaceOnUse"><stop offset="0" stop-color="#a2c815"/><stop offset="0.03" stop-color="#a1c715"/><stop offset="0.65" stop-color="#84b217"/><stop offset="1" stop-color="#79aa18"/></linearGradient></defs><polygon class="cls-1" points="509.05 283.02 817.3 283.02 817.3 170.93 867.95 138.6 509.05 138.6 509.05 283.02"/><polygon class="cls-1" points="642.7 483.49 950.94 483.49 950.94 371.4 1001.6 339.06 642.7 339.06 642.7 483.49"/><polygon class="cls-1" points="666.41 509.35 974.65 509.35 974.65 397.26 1025.31 364.93 666.41 364.93 666.41 509.35"/><polygon class="cls-1" points="310.74 381.1 662.49 381.1 662.49 248.93 720.29 210.81 310.74 210.81 310.74 381.1"/><polygon class="cls-1" points="304.27 745.39 515.77 745.39 515.77 665.92 550.52 643 304.27 643 304.27 745.39"/><polygon class="cls-1" points="396.44 770.18 553.39 770.18 553.39 711.21 579.19 694.19 396.44 694.19 396.44 770.18"/><polygon class="cls-1" points="648.64 941.4 823.11 941.4 823.11 875.85 851.78 856.94 648.64 856.94 648.64 941.4"/><polygon class="cls-1" points="768.84 660.24 911.32 660.24 911.32 606.71 934.73 591.27 768.84 591.27 768.84 660.24"/><polygon class="cls-1" points="758.06 732.19 857.68 732.19 857.68 694.75 874.06 683.96 758.06 683.96 758.06 732.19"/><polygon class="cls-1" points="710.84 814.5 831.89 814.5 831.89 769.02 851.78 755.9 710.84 755.9 710.84 814.5"/><polygon class="cls-1" points="816.06 792.81 903.44 792.81 903.44 759.98 917.8 750.51 816.06 750.51 816.06 792.81"/><polygon class="cls-1" points="771.27 872.14 875.6 872.14 875.6 832.95 892.74 821.64 771.27 821.64 771.27 872.14"/><polygon class="cls-1" points="857.07 683.96 931.09 683.96 931.09 656.14 943.25 648.12 857.07 648.12 857.07 683.96"/><polygon class="cls-1" points="990.71 576.51 1054.29 576.51 1054.29 552.62 1064.73 545.73 990.71 545.73 990.71 576.51"/><polygon class="cls-1" points="631.61 723.67 736.47 723.67 736.47 684.27 753.71 672.91 631.61 672.91 631.61 723.67"/><polygon class="cls-1" points="570.56 740.92 675.43 740.92 675.43 701.52 692.66 690.15 570.56 690.15 570.56 740.92"/><polygon class="cls-1" points="532.84 683.96 613.66 683.96 613.66 653.59 626.94 644.83 532.84 644.83 532.84 683.96"/><polygon class="cls-1" points="440.77 843.04 600.66 843.04 600.66 782.97 626.94 765.64 440.77 765.64 440.77 843.04"/><polygon class="cls-1" points="440.77 870.22 600.66 870.22 600.66 810.14 626.94 792.81 440.77 792.81 440.77 870.22"/><polygon class="cls-1" points="462.47 881.75 622.37 881.75 622.37 821.67 648.64 804.34 462.47 804.34 462.47 881.75"/><polygon class="cls-1" points="439.75 927.68 634.42 927.68 634.42 854.54 666.41 833.44 439.75 833.44 439.75 927.68"/><polygon class="cls-1" points="442.23 941.4 636.89 941.4 636.89 868.26 668.88 847.16 442.23 847.16 442.23 941.4"/><polygon class="cls-1" points="529.37 690.15 618.35 690.15 618.35 656.72 632.97 647.07 529.37 647.07 529.37 690.15"/><polygon class="cls-1" points="45.45 714.33 228.86 714.33 228.86 645.41 259 625.53 45.45 625.53 45.45 714.33"/><polygon class="cls-1" points="68.08 649.91 251.5 649.91 251.5 581 281.64 561.12 68.08 561.12 68.08 649.91"/><polygon class="cls-1" points="45.45 605.52 228.86 605.52 228.86 536.6 259 516.72 45.45 516.72 45.45 605.52"/><polygon class="cls-1" points="45.45 590.13 228.86 590.13 228.86 521.21 259 501.33 45.45 501.33 45.45 590.13"/><polygon class="cls-1" points="131.67 515.51 315.08 515.51 315.08 446.59 345.23 426.71 131.67 426.71 131.67 515.51"/><polygon class="cls-1" points="165.08 515.51 348.5 515.51 348.5 446.59 378.64 426.71 165.08 426.71 165.08 515.51"/><polygon class="cls-1" points="114.42 525.94 297.84 525.94 297.84 457.02 327.98 437.14 114.42 437.14 114.42 525.94"/><polygon class="cls-1" points="92.87 462.69 294.8 462.69 294.8 386.82 327.98 364.93 92.87 364.93 92.87 462.69"/><polygon class="cls-1" points="114.42 532.37 316.35 532.37 316.35 456.49 349.54 434.61 114.42 434.61 114.42 532.37"/><polygon class="cls-1" points="126.28 550.21 328.21 550.21 328.21 474.34 361.39 452.45 126.28 452.45 126.28 550.21"/><polygon class="cls-1" points="164.08 519.99 366.01 519.99 366.01 444.12 399.19 422.23 164.08 422.23 164.08 519.99"/><polygon class="cls-1" points="169.47 460.15 371.4 460.15 371.4 384.28 404.58 362.4 169.47 362.4 169.47 460.15"/><polygon class="cls-1" points="221.2 447.96 561.91 447.96 561.91 319.95 617.91 283.02 221.2 283.02 221.2 447.96"/><polygon class="cls-1" points="229.05 444.87 569.76 444.87 569.76 316.85 625.75 279.92 229.05 279.92 229.05 444.87"/><polygon class="cls-1" points="221.2 444.87 561.91 444.87 561.91 316.85 617.91 279.92 221.2 279.92 221.2 444.87"/><polygon class="cls-2" points="151.19 544.35 766.79 544.35 766.79 313.05 867.95 246.33 151.19 246.33 151.19 544.35"/><polygon class="cls-1" points="487.81 552.79 920.86 552.79 920.86 390.08 992.02 343.14 487.81 343.14 487.81 552.79"/><polygon class="cls-1" points="550.52 621.23 868.1 621.23 868.1 501.9 920.29 467.48 550.52 467.48 550.52 621.23"/><rect class="cls-3" x="240.81" y="370.91" width="558.93" height="264.16"/><text class="cls-4" transform="translate(242.51 702.22)">Network <tspan class="cls-5" x="297.19" y="0">P</tspan><tspan class="cls-6" x="343.39" y="0">vt. Ltd</tspan></text><text class="cls-7" transform="translate(274.03 566.51)">V</text><text class="cls-7" transform="translate(274.03 566.51)">V</text><text class="cls-8" transform="translate(613.94 566.51)">K</text><text class="cls-7" transform="translate(613.94 566.51)">K</text><text class="cls-8" transform="translate(440.26 566.51)">Y</text><path class="cls-9" d="M463.86,451.85l56.46,59.83v54.83h-2.61a211.52,211.52,0,0,0-21.86,1.3v-1.95a18.82,18.82,0,0,0,11.31-7.18q4-5.34,4-20.67V514.18l-34.59-36.55q-19.8-20.78-35.79-25.13v-2a135.77,135.77,0,0,0,19.58,1.31ZM528.7,566.51v-58l-54.39-56.68h3q12.94,0,26.76-1.31v2q-6.42,1.86-6.42,6.1,0,5.65,13.06,19.25l23,24,21.54-25.13q7.18-8.37,7.18-15,0-7.5-7.5-9.25v-2q2.61,0,13.27.88,4.45.43,7.83.43,1.85,0,19.15-1.31v2a36.83,36.83,0,0,0-13.28,6.64A102,102,0,0,0,570.69,471a10.91,10.91,0,0,1-1.52,1.95l-31.66,37v27.63q0,25.14,15.66,28.29v1.95q-19.9-1.3-20.56-1.3Z"/></svg>