<svg id="Layer_1" data-name="Layer 1" xmlns="http://www.w3.org/2000/svg" xmlns:xlink="http://www.w3.org/1999/xlink" viewBox="0 0 1019.28 802.8"><defs><style>.cls-1,.cls-2{fill:#8cca33;}.cls-1{opacity:0.43;}.cls-1,.cls-2,.cls-4,.cls-5,.cls-6,.cls-7,.cls-8{isolation:isolate;}.cls-2{opacity:0.18;}.cls-3{fill:#211a1a;}.cls-5,.cls-6{font-size:61.09px;font-family:Roboto-Bold, Roboto;font-weight:700;}.cls-5,.cls-6,.cls-7{fill:#fff;}.cls-5{letter-spacing:0.1em;}.cls-6{letter-spacing:0.11em;}.cls-7,.cls-8{font-size:222.79px;font-family:ColonnaMT, Colonna MT;}.cls-9{fill:url(#linear-gradient);}</style><linearGradient id="linear-gradient" x1="440.78" y1="568.73" x2="595.18" y2="568.73" gradientTransform="matrix(1, 0, 0, -1, 0, 1077.89)" gradientUnits="userSpaceOnUse"><stop offset="0" stop-color="#a2c815"/><stop offset="0.03" stop-color="#a1c715"/><stop offset="0.65" stop-color="#84b217"/><stop offset="1" stop-color="#79aa18"/></linearGradient></defs><polygon class="cls-1" points="463.6 144.42 771.85 144.42 771.85 32.33 822.5 0 463.6 0 463.6 144.42"/><polygon class="cls-1" points="597.25 344.89 905.49 344.89 905.49 232.8 956.15 200.46 597.25 200.46 597.25 344.89"/><polygon class="cls-1" points="620.96 370.75 929.2 370.75 929.2 258.66 979.86 226.33 620.96 226.33 620.96 370.75"/><polygon class="cls-1" points="265.29 242.5 617.04 242.5 617.04 110.33 674.84 72.21 265.29 72.21 265.29 242.5"/><polygon class="cls-1" points="258.82 606.79 470.32 606.79 470.32 527.32 505.07 504.4 258.82 504.4 258.82 606.79"/><polygon class="cls-1" points="350.99 631.58 507.94 631.58 507.94 572.61 533.74 555.59 350.99 555.59 350.99 631.58"/><polygon class="cls-1" points="603.19 802.8 777.66 802.8 777.66 737.25 806.33 718.34 603.19 718.34 603.19 802.8"/><polygon class="cls-1" points="723.39 521.64 865.87 521.64 865.87 468.11 889.28 452.67 723.39 452.67 723.39 521.64"/><polygon class="cls-1" points="712.61 593.59 812.23 593.59 812.23 556.15 828.61 545.36 712.61 545.36 712.61 593.59"/><polygon class="cls-1" points="665.39 675.9 786.44 675.9 786.44 630.42 806.33 617.3 665.39 617.3 665.39 675.9"/><polygon class="cls-1" points="770.61 654.21 857.99 654.21 857.99 621.38 872.35 611.91 770.61 611.91 770.61 654.21"/><polygon class="cls-1" points="725.82 733.54 830.15 733.54 830.15 694.35 847.29 683.04 725.82 683.04 725.82 733.54"/><polygon class="cls-1" points="811.62 545.36 885.64 545.36 885.64 517.54 897.8 509.52 811.62 509.52 811.62 545.36"/><polygon class="cls-1" points="945.26 437.91 1008.84 437.91 1008.84 414.02 1019.28 407.13 945.26 407.13 945.26 437.91"/><polygon class="cls-1" points="586.16 585.07 691.02 585.07 691.02 545.67 708.26 534.31 586.16 534.31 586.16 585.07"/><polygon class="cls-1" points="525.11 602.32 629.98 602.32 629.98 562.92 647.21 551.55 525.11 551.55 525.11 602.32"/><polygon class="cls-1" points="487.39 545.36 568.21 545.36 568.21 514.99 581.49 506.23 487.39 506.23 487.39 545.36"/><polygon class="cls-1" points="395.32 704.44 555.21 704.44 555.21 644.37 581.49 627.04 395.32 627.04 395.32 704.44"/><polygon class="cls-1" points="395.32 731.62 555.21 731.62 555.21 671.54 581.49 654.21 395.32 654.21 395.32 731.62"/><polygon class="cls-1" points="417.02 743.15 576.92 743.15 576.92 683.07 603.19 665.74 417.02 665.74 417.02 743.15"/><polygon class="cls-1" points="394.3 789.08 588.97 789.08 588.97 715.94 620.96 694.84 394.3 694.84 394.3 789.08"/><polygon class="cls-1" points="396.78 802.8 591.44 802.8 591.44 729.66 623.43 708.56 396.78 708.56 396.78 802.8"/><polygon class="cls-1" points="483.92 551.55 572.9 551.55 572.9 518.12 587.52 508.47 483.92 508.47 483.92 551.55"/><polygon class="cls-1" points="0 575.73 183.41 575.73 183.41 506.81 213.55 486.93 0 486.93 0 575.73"/><polygon class="cls-1" points="22.63 511.31 206.05 511.31 206.05 442.4 236.19 422.52 22.63 422.52 22.63 511.31"/><polygon class="cls-1" points="0 466.92 183.41 466.92 183.41 398 213.55 378.12 0 378.12 0 466.92"/><polygon class="cls-1" points="0 451.53 183.41 451.53 183.41 382.61 213.55 362.73 0 362.73 0 451.53"/><polygon class="cls-1" points="86.22 376.91 269.63 376.91 269.63 307.99 299.78 288.11 86.22 288.11 86.22 376.91"/><polygon class="cls-1" points="119.63 376.91 303.05 376.91 303.05 307.99 333.19 288.11 119.63 288.11 119.63 376.91"/><polygon class="cls-1" points="68.97 387.34 252.39 387.34 252.39 318.42 282.53 298.54 68.97 298.54 68.97 387.34"/><polygon class="cls-1" points="47.42 324.09 249.35 324.09 249.35 248.22 282.53 226.33 47.42 226.33 47.42 324.09"/><polygon class="cls-1" points="68.97 393.77 270.9 393.77 270.9 317.89 304.09 296.01 68.97 296.01 68.97 393.77"/><polygon class="cls-1" points="80.83 411.61 282.76 411.61 282.76 335.74 315.94 313.85 80.83 313.85 80.83 411.61"/><polygon class="cls-1" points="118.63 381.39 320.56 381.39 320.56 305.52 353.74 283.63 118.63 283.63 118.63 381.39"/><polygon class="cls-1" points="124.02 321.55 325.95 321.55 325.95 245.68 359.13 223.8 124.02 223.8 124.02 321.55"/><polygon class="cls-1" points="175.75 309.36 516.46 309.36 516.46 181.35 572.46 144.42 175.75 144.42 175.75 309.36"/><polygon class="cls-1" points="183.6 306.27 524.31 306.27 524.31 178.25 580.3 141.32 183.6 141.32 183.6 306.27"/><polygon class="cls-1" points="175.75 306.27 516.46 306.27 516.46 178.25 572.46 141.32 175.75 141.32 175.75 306.27"/><polygon class="cls-2" points="105.74 405.75 721.34 405.75 721.34 174.45 822.5 107.73 105.74 107.73 105.74 405.75"/><polygon class="cls-1" points="442.36 414.19 875.41 414.19 875.41 251.48 946.57 204.54 442.36 204.54 442.36 414.19"/><polygon class="cls-1" points="505.07 482.63 822.65 482.63 822.65 363.3 874.84 328.88 505.07 328.88 505.07 482.63"/><rect class="cls-3" x="195.36" y="232.31" width="558.93" height="264.16"/><g class="cls-4"><text class="cls-5" transform="translate(197.06 563.62)">Network </text><text class="cls-6" transform="translate(494.25 563.62)">P</text><text class="cls-5" transform="translate(540.45 563.62)">vt. Ltd</text></g><text class="cls-7" transform="translate(228.58 427.91)">V</text><text class="cls-7" transform="translate(228.58 427.91)">V</text><text class="cls-8" transform="translate(568.49 427.91)">K</text><text class="cls-7" transform="translate(568.49 427.91)">K</text><text class="cls-8" transform="translate(394.81 427.91)">Y</text><path class="cls-9" d="M463.86,451.85l56.46,59.83v54.83h-2.61a213,213,0,0,0-21.86,1.3v-1.95a18.84,18.84,0,0,0,11.31-7.18q4-5.34,4-20.67V514.18l-34.59-36.55q-19.8-20.78-35.79-25.13v-2a135,135,0,0,0,19.58,1.31ZM528.7,566.51v-58l-54.39-56.68h3q12.94,0,26.76-1.31v2q-6.42,1.86-6.41,6.1,0,5.65,13,19.25l23,24,21.54-25.13q7.18-8.37,7.18-15,0-7.5-7.5-9.25v-2q2.61,0,13.27.88,4.45.44,7.83.43,1.85,0,19.15-1.31v2a36.89,36.89,0,0,0-13.28,6.64A101.45,101.45,0,0,0,570.69,471a10.64,10.64,0,0,1-1.52,1.95l-31.66,37v27.63q0,25.14,15.66,28.29v2q-19.9-1.3-20.55-1.3Z" transform="translate(-45.45 -138.6)"/></svg>