<svg id="Layer_1" data-name="Layer 1" xmlns="http://www.w3.org/2000/svg" xmlns:xlink="http://www.w3.org/1999/xlink" viewBox="0 0 1080 1080"><defs><style>.cls-1,.cls-2{fill:#8cca33;}.cls-1{opacity:0.43;}.cls-2{opacity:0.18;}.cls-3{fill:#211a1a;}.cls-4{fill:url(#linear-gradient);}.cls-5,.cls-6{fill:#fff;}.cls-6{font-size:86.68px;font-family:Roboto-Bold, Roboto;font-weight:700;letter-spacing:0.1em;}</style><linearGradient id="linear-gradient" x1="414.49" y1="582.92" x2="413.34" y2="400.25" gradientUnits="userSpaceOnUse"><stop offset="0" stop-color="#a2c815"/><stop offset="0.03" stop-color="#a1c715"/><stop offset="0.65" stop-color="#84b217"/><stop offset="1" stop-color="#79aa18"/></linearGradient></defs><polygon class="cls-1" points="501 307 787 307 787 203 834 173 501 173 501 307"/><polygon class="cls-1" points="625 493 911 493 911 389 958 359 625 359 625 493"/><polygon class="cls-1" points="647 517 933 517 933 413 980 383 647 383 647 517"/><polygon class="cls-1" points="317 398 643.37 398 643.37 275.37 697 240 317 240 317 398"/><polygon class="cls-1" points="311 736 507.23 736 507.23 662.27 539.48 641 311 641 311 736"/><polygon class="cls-1" points="396.52 759 542.14 759 542.14 704.28 566.08 688.5 396.52 688.5 396.52 759"/><polygon class="cls-1" points="630.52 917.87 792.4 917.87 792.4 857.04 819 839.5 630.52 839.5 630.52 917.87"/><polygon class="cls-1" points="742.04 657 874.24 657 874.24 607.33 895.96 593 742.04 593 742.04 657"/><polygon class="cls-1" points="732.04 723.75 824.47 723.75 824.47 689.02 839.66 679 732.04 679 732.04 723.75"/><polygon class="cls-1" points="688.23 800.13 800.54 800.13 800.54 757.92 819 745.75 688.23 745.75 688.23 800.13"/><polygon class="cls-1" points="785.85 780 866.93 780 866.93 749.54 880.25 740.75 785.85 740.75 785.85 780"/><polygon class="cls-1" points="744.3 853.61 841.09 853.61 841.09 817.24 857 806.75 744.3 806.75 744.3 853.61"/><polygon class="cls-1" points="823.9 679 892.58 679 892.58 653.19 903.87 645.75 823.9 645.75 823.9 679"/><polygon class="cls-1" points="947.9 579.31 1006.89 579.31 1006.89 557.14 1016.58 550.75 947.9 550.75 947.9 579.31"/><polygon class="cls-1" points="614.72 715.85 712.01 715.85 712.01 679.29 728 668.75 614.72 668.75 614.72 715.85"/><polygon class="cls-1" points="558.07 731.85 655.37 731.85 655.37 695.29 671.36 684.75 558.07 684.75 558.07 731.85"/><polygon class="cls-1" points="523.07 679 598.06 679 598.06 650.83 610.38 642.7 523.07 642.7 523.07 679"/><polygon class="cls-1" points="437.64 826.61 586 826.61 586 770.87 610.38 754.79 437.64 754.79 437.64 826.61"/><polygon class="cls-1" points="437.64 851.82 586 851.82 586 796.08 610.38 780 437.64 780 437.64 851.82"/><polygon class="cls-1" points="457.78 862.52 606.14 862.52 606.14 806.78 630.52 790.7 457.78 790.7 457.78 862.52"/><polygon class="cls-1" points="436.71 905.14 617.32 905.14 617.32 837.27 647 817.7 436.71 817.7 436.71 905.14"/><polygon class="cls-1" points="439 917.87 619.62 917.87 619.62 850.01 649.3 830.43 439 830.43 439 917.87"/><polygon class="cls-1" points="519.85 684.75 602.41 684.75 602.41 653.73 615.98 644.78 519.85 644.78 519.85 684.75"/><polygon class="cls-1" points="70.85 707.18 241.03 707.18 241.03 643.24 269 624.8 70.85 624.8 70.85 707.18"/><polygon class="cls-1" points="91.85 647.42 262.03 647.42 262.03 583.47 290 565.03 91.85 565.03 91.85 647.42"/><polygon class="cls-1" points="70.85 606.22 241.03 606.22 241.03 542.28 269 523.84 70.85 523.84 70.85 606.22"/><polygon class="cls-1" points="70.85 591.94 241.03 591.94 241.03 528 269 509.56 70.85 509.56 70.85 591.94"/><polygon class="cls-1" points="150.85 522.71 321.03 522.71 321.03 458.76 349 440.32 150.85 440.32 150.85 522.71"/><polygon class="cls-1" points="181.85 522.71 352.03 522.71 352.03 458.76 380 440.32 181.85 440.32 181.85 522.71"/><polygon class="cls-1" points="134.85 532.39 305.03 532.39 305.03 468.44 333 450 134.85 450 134.85 532.39"/><polygon class="cls-1" points="114.85 473.7 302.21 473.7 302.21 403.31 333 383 114.85 383 114.85 473.7"/><polygon class="cls-1" points="134.85 538.35 322.21 538.35 322.21 467.95 353 447.65 134.85 447.65 134.85 538.35"/><polygon class="cls-1" points="145.85 554.91 333.21 554.91 333.21 484.51 364 464.2 145.85 464.2 145.85 554.91"/><polygon class="cls-1" points="180.93 526.87 368.28 526.87 368.28 456.47 399.07 436.16 180.93 436.16 180.93 526.87"/><polygon class="cls-1" points="185.93 471.35 373.28 471.35 373.28 400.95 404.07 380.65 185.93 380.65 185.93 471.35"/><polygon class="cls-1" points="233.93 460.04 550.05 460.04 550.05 341.26 602 307 233.93 307 233.93 460.04"/><polygon class="cls-1" points="241.2 457.17 557.33 457.17 557.33 338.39 609.28 304.13 241.2 304.13 241.2 457.17"/><polygon class="cls-1" points="233.93 457.17 550.05 457.17 550.05 338.39 602 304.13 233.93 304.13 233.93 457.17"/><polygon class="cls-2" points="168.96 549.47 740.14 549.47 740.14 334.87 834 272.96 168.96 272.96 168.96 549.47"/><polygon class="cls-1" points="481.3 557.3 883.09 557.3 883.09 406.33 949.12 362.78 481.3 362.78 481.3 557.3"/><polygon class="cls-1" points="539.48 620.8 834.14 620.8 834.14 510.09 882.56 478.15 539.48 478.15 539.48 620.8"/><rect class="cls-3" x="252.11" y="388.55" width="518.59" height="245.1"/><polygon class="cls-4" points="322.69 436.37 360.44 436.37 360.44 552.62 399.69 552.62 399.69 436.37 428.38 436.37 428.38 552.62 472.16 552.62 472.16 436.37 505.37 436.37 505.37 584.33 322.69 584.33 322.69 436.37"/><polygon class="cls-5" points="552.18 499.78 666.92 499.78 666.92 469.59 552.18 469.59 552.18 523.94 552.18 552.62 700.13 552.62 700.13 584.33 521.98 584.33 521.98 436.37 700.13 436.37 700.13 525.37 559.72 525.32 543.12 525.45 552.18 499.78"/><text class="cls-6" transform="translate(254.69 712.95)">network llc</text></svg>